<svg xmlns="http://www.w3.org/2000/svg" viewBox="0 0 512 512">
  <defs>
    <linearGradient id="sky" x1="0" y1="0" x2="0" y2="1">
      <stop offset="0%" stop-color="#0f2847"/>
      <stop offset="100%" stop-color="#1a3a5c"/>
    </linearGradient>
    <linearGradient id="gold" x1="0" y1="0" x2="1" y2="1">
      <stop offset="0%" stop-color="#f0a500"/>
      <stop offset="100%" stop-color="#d4880f"/>
    </linearGradient>
    <linearGradient id="river" x1="0" y1="0" x2="1" y2="0">
      <stop offset="0%" stop-color="#2a7ab5"/>
      <stop offset="50%" stop-color="#3a9ad5"/>
      <stop offset="100%" stop-color="#2a7ab5"/>
    </linearGradient>
    <!-- Rounded square clip so corners are smooth on iOS 'any' purpose -->
    <clipPath id="round-clip">
      <rect x="16" y="16" width="480" height="480" rx="96" ry="96"/>
    </clipPath>
  </defs>
  <g clip-path="url(#round-clip)">
    <!-- Background: rounded square with inner gold ring safely inside the clip -->
    <rect x="16" y="16" width="480" height="480" rx="96" ry="96" fill="url(#sky)"/>
    <rect x="30" y="30" width="452" height="452" rx="82" ry="82" fill="none" stroke="#f0a500" stroke-width="6" opacity="0.9"/>
    <!-- Sun -->
    <circle cx="370" cy="130" r="52" fill="url(#gold)" opacity="0.95"/>
    <g stroke="#f0a500" stroke-width="4" stroke-linecap="round" opacity="0.8">
      <line x1="370" y1="62" x2="370" y2="46"/>
      <line x1="370" y1="214" x2="370" y2="198"/>
      <line x1="302" y1="130" x2="286" y2="130"/>
      <line x1="438" y1="130" x2="454" y2="130"/>
      <line x1="322" y1="82" x2="311" y2="71"/>
      <line x1="418" y1="178" x2="429" y2="189"/>
      <line x1="418" y1="82" x2="429" y2="71"/>
      <line x1="322" y1="178" x2="311" y2="189"/>
    </g>
    <!-- Church tower / Stadtkirche silhouette -->
    <g fill="#1a2a44">
      <rect x="156" y="160" width="40" height="200" rx="2"/>
      <polygon points="176,100 146,170 206,170"/>
      <rect x="172" y="85" width="8" height="22"/>
      <rect x="165" y="92" width="22" height="8"/>
      <rect x="165" y="190" width="22" height="32" rx="11" fill="#0f2847"/>
      <circle cx="176" cy="248" r="14" fill="#0f2847"/>
      <circle cx="176" cy="248" r="12" fill="none" stroke="#f0a500" stroke-width="1.5" opacity="0.6"/>
      <rect x="100" y="280" width="76" height="80" rx="2"/>
      <polygon points="100,280 138,250 176,280"/>
      <rect x="176" y="290" width="70" height="70" rx="2"/>
      <polygon points="176,290 211,265 246,290"/>
      <rect x="112" y="300" width="14" height="18" rx="2" fill="#f0a500" opacity="0.35"/>
      <rect x="138" y="300" width="14" height="18" rx="2" fill="#f0a500" opacity="0.35"/>
      <rect x="112" y="330" width="14" height="18" rx="2" fill="#f0a500" opacity="0.3"/>
      <rect x="138" y="330" width="14" height="18" rx="2" fill="#f0a500" opacity="0.3"/>
      <rect x="190" y="310" width="14" height="18" rx="2" fill="#f0a500" opacity="0.35"/>
      <rect x="216" y="310" width="14" height="18" rx="2" fill="#f0a500" opacity="0.35"/>
      <rect x="190" y="338" width="14" height="18" rx="2" fill="#f0a500" opacity="0.3"/>
      <rect x="246" y="300" width="55" height="60" rx="2"/>
      <polygon points="246,300 273,275 301,300"/>
      <rect x="301" y="310" width="45" height="50" rx="2"/>
      <polygon points="301,310 323,290 346,310"/>
    </g>
    <!-- Hill / landscape -->
    <ellipse cx="256" cy="380" rx="220" ry="30" fill="#152238"/>
    <!-- Neckar river -->
    <path d="M30,400 C80,390 130,405 180,395 C230,385 280,400 330,392 C380,384 430,398 490,390"
          fill="none" stroke="url(#river)" stroke-width="14" stroke-linecap="round" opacity="0.85"/>
    <path d="M40,420 C90,412 140,425 190,415 C240,405 290,418 340,412 C390,404 440,416 500,410"
          fill="none" stroke="url(#river)" stroke-width="10" stroke-linecap="round" opacity="0.55"/>
    <!-- Text FREIBERG -->
    <text x="256" y="468" text-anchor="middle" font-family="Georgia, serif" font-size="44" font-weight="bold" fill="#f0a500" letter-spacing="6">FREIBERG</text>
  </g>
</svg>
